<svg width="20" height="20" viewBox="0 0 20 20" fill="none" xmlns="http://www.w3.org/2000/svg">
<path fill-rule="evenodd" clip-rule="evenodd" d="M10 19C5.02945 19 1 14.9706 1 10C1 5.02945 5.02945 1 10 1C14.9706 1 19 5.02945 19 10C19 14.9706 14.9706 19 10 19ZM10 1.5V18.5C14.6944 18.5 18.5 14.6944 18.5 10C18.5 5.3056 14.6944 1.5 10 1.5ZM10.0001 6.40005C11.9883 6.40005 13.6001 8.0118 13.6001 10C13.6001 11.9882 11.9883 13.6 10.0001 13.6V6.40005ZM10.0001 13.6C8.0119 13.6 6.3999 11.9882 6.3999 9.99995C6.3999 8.01175 8.0119 6.40005 10.0001 6.40005V13.6Z" fill="white"/>
</svg>
